<svg xmlns="http://www.w3.org/2000/svg" viewBox="0 0 200 110" role="img" aria-label="Car placeholder">
  <g fill="#ffffff" fill-opacity="0.95">
    <path d="M22 74c-6 0-10-4-10-9 0-4 2-7 6-9l8-3 12-17c3-4 7-6 12-6h44c5 0 10 2 13 6l11 14 18 3c8 1 14 7 14 15 0 5-4 9-10 9h-9a14 14 0 01-27 0H58a14 14 0 01-27 0z"/>
  </g>
  <g fill="#0044FF">
    <circle cx="44.5" cy="74" r="9"/><circle cx="119.5" cy="74" r="9"/>
  </g>
  <g fill="#0044FF" fill-opacity="0.85">
    <circle cx="44.5" cy="74" r="3.4" fill="#fff"/><circle cx="119.5" cy="74" r="3.4" fill="#fff"/>
  </g>
  <path d="M52 38c2-3 5-4 8-4h36c4 0 7 1 9 4l7 9H45z" fill="#0044FF" fill-opacity="0.25"/>
</svg>
